<svg xmlns="http://www.w3.org/2000/svg" width="96.769" height="96.768"><path d="M78.13 62.958c-.434-4.479-1.723-9.157-3.728-13.527-1.819-3.98-4.206-7.787-7.089-11.306-.81-.994-1.633-1.946-2.058-2.385l-.979-1.07c-.239-.274-.44-.494-.639-.689l-.293-.297a14.624 14.624 0 0 1-.992-1.069 17.097 17.097 0 0 0-.436-.455c-.208-.211-.444-.446-.654-.71l-.083-.098c-1.492-1.64-2.747-3.131-3.835-4.555-1.274-1.677-2.174-3.064-2.922-4.51-.866-1.647-1.514-3.48-1.924-5.462-.389-1.795-.616-3.855-.677-6.13-.06-2.02.063-3.961.19-5.58.092-1.078.196-2.032.298-2.875A2 2 0 0 0 49.817.066c-.954.249-1.932.579-2.9.979-2.033.829-4.033 1.982-5.947 3.431-2.441 1.853-4.58 4.142-6.356 6.799-2.18 3.247-3.723 7.066-4.46 11.031-.841 4.363-.748 9.286.26 13.854.957 4.422 2.81 8.938 5.366 13.073 1.351 2.153 2.646 3.953 3.928 5.464.382.475 1.434 1.703 1.445 1.717l.42.481c.294.333.504.584.718.84.198.235.361.43.543.624l.031.032c2 2.392 3.41 4.148 4.574 5.702a63.56 63.56 0 0 1 3.456 5.066c1.107 1.814 1.898 3.4 2.488 4.985.666 1.803 1.104 3.757 1.307 5.816.187 1.812.188 3.844.005 6.2-.184 2.137-.517 4.085-.779 5.512-.196.976-.388 1.877-.563 2.655a2 2 0 0 0 2.334 2.403 21.045 21.045 0 0 0 2.738-.728c2.09-.68 4.152-1.669 6.122-2.932 2.556-1.616 4.862-3.688 6.855-6.153 2.416-2.988 4.303-6.575 5.456-10.37 1.293-4.222 1.734-8.924 1.272-13.589zM38.92 75.206a23.718 23.718 0 0 0-3.234-5.161c-.33-.405-.729-.87-.924-1.072l-.461-.504a7.928 7.928 0 0 0-.299-.322l-.126-.127a7.073 7.073 0 0 1-.485-.521l-.173-.18c-.101-.104-.2-.205-.285-.311a1.717 1.717 0 0 0-.069-.08 31.401 31.401 0 0 1-1.725-2.047c-.422-.559-.911-1.24-1.343-2.072a9.504 9.504 0 0 1-.878-2.495c-.176-.817-.279-1.757-.307-2.794-.025-.861.023-1.675.062-2.212a1.999 1.999 0 0 0-2.854-1.948c-.74.353-1.467.797-2.163 1.323a12.825 12.825 0 0 0-2.898 3.101 13.512 13.512 0 0 0-2.036 5.03c-.385 1.996-.344 4.246.116 6.328.437 2.021 1.283 4.084 2.454 5.979.617.981 1.207 1.802 1.775 2.472.167.207.529.626.69.813l-.003.003.178.202a13 13 0 0 1 .337.395c.084.103.156.188.223.258l.031.033c.617.737 1.412 1.7 2.091 2.607a28.16 28.16 0 0 1 1.576 2.312c.503.822.864 1.545 1.133 2.269.304.824.505 1.719.598 2.665.085.825.085 1.753.003 2.815a24.53 24.53 0 0 1-.269 2.036 2 2 0 0 0 2.722 2.19 12.553 12.553 0 0 0 2.035-1.06 12.885 12.885 0 0 0 3.137-2.813c1.102-1.362 1.963-3 2.49-4.732.583-1.903.789-4.108.583-6.206-.2-2.045-.788-4.18-1.702-6.174z"/></svg>