<svg xmlns="http://www.w3.org/2000/svg" viewBox="0 0 60.015 60.015"><path d="M59.136 7.372c-1.133-1.133-3.109-1.133-4.242 0L27 35.265 15.344 23.609c-1.133-1.133-3.109-1.133-4.242 0-.566.566-.879 1.32-.879 2.121s.313 1.555.879 2.121l13.777 13.777c.566.566 1.32.879 2.121.879s1.555-.313 2.121-.879l30.015-30.015c.566-.566.879-1.32.879-2.121s-.313-1.554-.879-2.12z"/><path d="M27 45.007a5.464 5.464 0 0 1-3.889-1.611L9.334 29.619c-1.039-1.039-1.611-2.42-1.611-3.889s.572-2.85 1.611-3.889c1.005-1.006 2.423-1.582 3.889-1.582s2.884.576 3.889 1.582L27 31.73l26-26V3.507H0v53h53V21.285L30.889 43.396A5.464 5.464 0 0 1 27 45.007z"/></svg>