<svg xmlns="http://www.w3.org/2000/svg" viewBox="0 0 60 60"><circle cx="30" cy="29.879" r="2"/><path d="M30 0C13.458 0 0 13.458 0 30s13.458 30 30 30 30-13.458 30-30S46.542 0 30 0zm-1 7.879a1 1 0 1 1 2 0v1a1 1 0 1 1-2 0v-1zm-20 23H8a1 1 0 1 1 0-2h1a1 1 0 1 1 0 2zm6.858 14.557l-.707.707a.997.997 0 0 1-1.414 0 .999.999 0 0 1 0-1.414l.707-.707a.999.999 0 1 1 1.414 1.414zm0-29.7a.997.997 0 0 1-1.414 0l-.707-.707a.999.999 0 1 1 1.414-1.414l.707.707a.999.999 0 0 1 0 1.414zM31 51.879a1 1 0 1 1-2 0v-1a1 1 0 1 1 2 0v1zm-1-18c-1.858 0-3.411-1.28-3.858-3H19a1 1 0 1 1 0-2h7.142A3.995 3.995 0 0 1 29 26.021V15.879a1 1 0 1 1 2 0v10.142c1.72.447 3 1.999 3 3.858 0 2.206-1.794 4-4 4zm16.263 12.264a.997.997 0 0 1-1.414 0l-.707-.707a.999.999 0 1 1 1.414-1.414l.707.707a.999.999 0 0 1 0 1.414zm0-31.114l-.707.707a.997.997 0 0 1-1.414 0 .999.999 0 0 1 0-1.414l.707-.707a.999.999 0 1 1 1.414 1.414zM52 30.879h-1a1 1 0 1 1 0-2h1a1 1 0 1 1 0 2z"/></svg>