<svg height="32" width="32" xmlns="http://www.w3.org/2000/svg"><path d="M649 137.999h26v18h-14m-8 0h-4v-14M661 156l-8 6v-6" fill="none" stroke="#FFF" stroke-linecap="round" stroke-linejoin="round" stroke-miterlimit="10" stroke-width="2"/><path d="M21.947 16.332A7.958 7.958 0 0 0 24 11c0-4.411-3.589-8-8-8s-8 3.589-8 8 3.589 8 8 8a7.943 7.943 0 0 0 4.233-1.224A11.978 11.978 0 0 1 27.959 28H4.042a12.006 12.006 0 0 1 4.078-8.051 1 1 0 1 0-1.314-1.508A14 14 0 0 0 2 29a1 1 0 0 0 1 1h26a1 1 0 0 0 1-1c0-5.486-3.18-10.385-8.053-12.668zM10 11c0-3.309 2.691-6 6-6s6 2.691 6 6-2.691 6-6 6-6-2.691-6-6z"/></svg>