<svg height="32" width="32" xmlns="http://www.w3.org/2000/svg"><path d="M649 137.999h26v18h-14m-8 0h-4v-14M661 156l-8 6v-6" fill="none" stroke="#FFF" stroke-linecap="round" stroke-linejoin="round" stroke-miterlimit="10" stroke-width="2"/><path d="M29 27H3a1 1 0 0 1-1-1V10a1 1 0 0 1 2 0v15h24V7H3a1 1 0 0 1 0-2h26a1 1 0 0 1 1 1v20a1 1 0 0 1-1 1z"/><path d="M16 19a.997.997 0 0 1-.707-.293l-8-8a.999.999 0 1 1 1.414-1.414L16 16.586l7.293-7.293a.999.999 0 1 1 1.414 1.414l-8 8A.997.997 0 0 1 16 19zm8.001 4a.997.997 0 0 1-.707-.293l-3.002-3.002a.999.999 0 1 1 1.414-1.414l3.002 3.002A.999.999 0 0 1 24.001 23zm-16 0a.999.999 0 0 1-.707-1.707l2.999-2.999a.999.999 0 1 1 1.414 1.414l-2.999 2.999a.997.997 0 0 1-.707.293z"/></svg>