<svg height="32" width="32" xmlns="http://www.w3.org/2000/svg"><path d="M649 137.999h26v18h-14m-8 0h-4v-14M661 156l-8 6v-6" fill="none" stroke="#FFF" stroke-linecap="round" stroke-linejoin="round" stroke-miterlimit="10" stroke-width="2"/><path d="M14.626 18.4a.997.997 0 0 1-.707-.293l-4.171-4.17a1 1 0 0 1 0-1.414l2.434-2.433c.76-.76.76-1.997 0-2.757l-2.78-2.78c-.737-.736-2.021-.737-2.758 0a1.05 1.05 0 0 1-.145.12c-.115.08-2.906 2.076-2.448 6.198a1 1 0 1 1-1.987.221C1.51 6.114 4.713 3.505 5.291 3.078c1.497-1.436 4.051-1.412 5.524.06l2.78 2.78a3.953 3.953 0 0 1 0 5.585L11.87 13.23l3.463 3.463a.999.999 0 0 1-.707 1.707zM9.76 23.266a.997.997 0 0 1-.707-.293c-2.457-2.457-4.296-4.855-5.467-7.128a1 1 0 1 1 1.778-.916c1.076 2.089 2.792 4.32 5.103 6.63a.999.999 0 0 1-.707 1.707z"/><path d="M21.992 29.982c-3.937 0-8.299-2.369-12.984-7.055a.999.999 0 1 1 1.414-1.414c4.539 4.54 8.778 6.762 12.284 6.436 3.09-.292 4.588-2.445 4.603-2.468a.925.925 0 0 1 .12-.145c.368-.367.571-.858.571-1.378s-.203-1.01-.571-1.378l-2.78-2.781a1.938 1.938 0 0 0-1.38-.57 1.93 1.93 0 0 0-1.377.57l-2.435 2.433a.999.999 0 0 1-1.414 0l-4.169-4.169a.999.999 0 1 1 1.414-1.414l3.462 3.462 1.727-1.726a3.919 3.919 0 0 1 2.792-1.157c1.056 0 2.048.411 2.794 1.156l2.78 2.782A3.92 3.92 0 0 1 30 23.958a3.92 3.92 0 0 1-1.097 2.731c-.364.492-2.327 2.903-6.009 3.251a9.298 9.298 0 0 1-.902.042z"/></svg>