<svg xmlns="http://www.w3.org/2000/svg" viewBox="0 0 59.968 59.968"><path d="M52.66 29.716c0-.88-.343-1.707-.965-2.329l-.557-.557a4.492 4.492 0 0 0 1.521-3.362c0-2.481-2.019-4.5-4.5-4.5a4.4 4.4 0 0 0-.54.04 4.4 4.4 0 0 0 .04-.54c0-2.481-2.019-4.5-4.5-4.5a4.4 4.4 0 0 0-.54.04 4.4 4.4 0 0 0 .04-.54c0-2.481-2.019-4.5-4.5-4.5a4.4 4.4 0 0 0-.54.04 4.4 4.4 0 0 0 .04-.54c0-2.481-2.019-4.5-4.5-4.5a4.493 4.493 0 0 0-3.362 1.521l-.123-.123-16.969 16.972 4.238 4.238c-1.356.776-2.283 2.221-2.283 3.892 0 1.566.806 2.944 2.023 3.75.062.083.133.164.221.239L27.66 45.172v1.796h-2v13h26v-13h-2v-3.029a8.42 8.42 0 0 0 3-6.471c0-1.74-.543-3.43-1.536-4.852l.571-.571a3.272 3.272 0 0 0 .965-2.329zm-16 3.252c0-2.206 1.794-4 4-4s4 1.794 4 4-1.794 4-4 4-4-1.794-4-4zm14-9.5c0 .768-.354 1.479-.937 1.947l-3.511-3.511a2.499 2.499 0 0 1 1.947-.937 2.504 2.504 0 0 1 2.501 2.501zm-5-5c0 .768-.354 1.479-.937 1.947l-3.511-3.511a2.499 2.499 0 0 1 1.947-.937 2.504 2.504 0 0 1 2.501 2.501zm-5-5c0 .768-.354 1.479-.937 1.947l-3.511-3.511a2.499 2.499 0 0 1 1.947-.937 2.504 2.504 0 0 1 2.501 2.501zm-7.5-7.5a2.497 2.497 0 1 1 1.563 4.447l-3.511-3.511a2.504 2.504 0 0 1 1.948-.936zM18.621 28.03l.415-.047c.041-.006.082-.015.124-.015h10c1.379 0 2.5 1.121 2.5 2.5s-1.121 2.5-2.5 2.5h-10a2.502 2.502 0 0 1-2.5-2.5c0-1.193.841-2.19 1.961-2.438zM36.16 56.968c-1.93 0-3.5-1.57-3.5-3.5s1.57-3.5 3.5-3.5 3.5 1.57 3.5 3.5-1.57 3.5-3.5 3.5zm13.5 1h-6v-3.426a7.548 7.548 0 0 0-2.464-5.574h8.464v9zm.026-23.912a6.47 6.47 0 0 1 .975 3.412 6.448 6.448 0 0 1-2.602 5.191l-.398.3v4.009H29.66V44.25l-.353-.299a3.209 3.209 0 0 0-.18-.14l-8.877-8.844h5.085l9.389 9.39c.623.622 1.45.965 2.33.965.879 0 1.706-.343 2.329-.965l10.303-10.301zM25.241.933c-1.244-1.244-3.414-1.244-4.658 0L8.271 13.245a3.3 3.3 0 0 0 0 4.659l3.02 3.02 16.97-16.971-3.02-3.02zm-5.874 8.742l-2 2a.997.997 0 0 1-1.414 0 .999.999 0 0 1 0-1.414l2-2a.999.999 0 1 1 1.414 1.414z"/></svg>