<svg xmlns="http://www.w3.org/2000/svg" viewBox="0 0 60 60"><path d="M41.014 45.389l-9.553-4.776A2.63 2.63 0 0 1 30 38.248v-3.381c.229-.28.47-.599.719-.951a22.886 22.886 0 0 0 2.954-5.799A3.968 3.968 0 0 0 36 24.5v-4c0-.963-.36-1.896-1-2.625v-5.319c.056-.55.276-3.824-2.092-6.525C30.854 3.688 27.521 2.5 23 2.5s-7.854 1.188-9.908 3.53c-2.368 2.701-2.148 5.976-2.092 6.525v5.319c-.64.729-1 1.662-1 2.625v4c0 1.217.553 2.352 1.497 3.109.916 3.627 2.833 6.36 3.503 7.237v3.309c0 .968-.528 1.856-1.377 2.32L4.702 45.34A9.02 9.02 0 0 0 0 53.262V57.5h46v-4.043a8.972 8.972 0 0 0-4.986-8.068z"/><path d="M55.467 46.526l-9.723-4.21c-.23-.115-.485-.396-.704-.771l6.525-.005s.377.037.962.037c1.073 0 2.638-.122 4-.707a2.94 2.94 0 0 0 1.669-1.907 2.967 2.967 0 0 0-.426-2.523c-1.865-2.654-6.218-9.589-6.354-16.623-.003-.121-.397-12.083-12.21-12.18-1.187.01-2.309.156-3.372.413.792 2.094.719 3.968.665 4.576v4.733c.648.922 1 2.017 1 3.141v4a5.496 5.496 0 0 1-2.607 4.662 24.305 24.305 0 0 1-3.392 6.225v2.86c0 .442.236.825.631 1.022l9.553 4.776a10.463 10.463 0 0 1 5.815 9.41V57.5H60v-3.697c0-3.092-1.718-5.87-4.533-7.277z"/></svg>