<svg width="12" height="10" viewBox="0 0 12 10" fill="none" xmlns="http://www.w3.org/2000/svg">
<path d="M0.674537 5.94413L0.655805 5.94002L8.68566 5.94002L6.16136 8.47822C6.03776 8.60214 5.96995 8.77 5.96995 8.94619C5.96995 9.12238 6.03776 9.28908 6.16136 9.41329L6.55414 9.80756C6.67766 9.93148 6.84224 10 7.01775 10C7.19336 10 7.35805 9.93197 7.48156 9.80805L11.8087 5.46705C11.9327 5.34264 12.0005 5.17692 12 5.00064C12.0005 4.82337 11.9327 4.65756 11.8087 4.53334L7.48156 0.191948C7.35805 0.0681267 7.19346 0 7.01775 0C6.84224 0 6.67766 0.068224 6.55414 0.191948L6.16136 0.58622C6.03776 0.709944 5.96995 0.87517 5.96995 1.05136C5.96995 1.22745 6.03776 1.38396 6.16136 1.50779L8.71414 4.06018L0.665561 4.06018C0.303903 4.06018 0 4.37291 0 4.73557V5.29321C0 5.65586 0.312879 5.94413 0.674537 5.94413Z" fill="white"/>
</svg>
